<svg width="32" height="32" viewBox="0 0 32 32" fill="none" xmlns="http://www.w3.org/2000/svg">
<path fill-rule="evenodd" clip-rule="evenodd" d="M25.8855 10.0501C24.8377 9.09464 23.1454 9.09464 22.0976 10.0501L15.9324 15.6931L9.76709 10.0501V10.0501C8.64019 9.16483 6.94432 9.28519 5.97927 10.3189C5.11799 11.2414 5.11799 12.6021 5.97928 13.5246L15.9324 22.6668L25.8855 13.5246C26.927 12.5635 26.927 11.0112 25.8855 10.0501L25.8855 10.0501Z" fill="#1D49BA"/>
<mask id="mask0" mask-type="alpha" maskUnits="userSpaceOnUse" x="5" y="9" width="22" height="14">
<path fill-rule="evenodd" clip-rule="evenodd" d="M25.8855 10.0501C24.8377 9.09464 23.1454 9.09464 22.0976 10.0501L15.9324 15.6931L9.76709 10.0501V10.0501C8.64019 9.16483 6.94432 9.28519 5.97927 10.3189C5.11799 11.2414 5.11799 12.6021 5.97928 13.5246L15.9324 22.6668L25.8855 13.5246C26.927 12.5635 26.927 11.0112 25.8855 10.0501L25.8855 10.0501Z" fill="white"/>
</mask>
<g mask="url(#mask0)">
</g>
</svg>
