<svg width="32" height="32" viewBox="0 0 32 32" fill="none" xmlns="http://www.w3.org/2000/svg">
<path fill-rule="evenodd" clip-rule="evenodd" d="M16 21.5554L22.8693 14.3998V14.3998C23.4938 13.7486 23.4932 12.6933 22.8679 12.0428C22.5683 11.7311 22.1622 11.5558 21.7387 11.5554H18.1334V4.88873V4.88873C18.1334 3.66143 17.1782 2.6665 16 2.6665C14.8218 2.6665 13.8667 3.66143 13.8667 4.88873V11.5554H10.2613V11.5554C9.37769 11.5562 8.66198 12.3031 8.66276 13.2235C8.66313 13.6647 8.8314 14.0877 9.13068 14.3998L16 21.5554ZM24.5333 24.8887H7.46668V24.8887C6.28847 24.8887 5.33334 25.8836 5.33334 27.1109C5.33334 28.3382 6.28847 29.3332 7.46668 29.3332H24.5333V29.3332C25.7115 29.3332 26.6667 28.3382 26.6667 27.1109C26.6667 25.8836 25.7115 24.8887 24.5333 24.8887H24.5333Z" fill="#1D49BA"/>
<mask id="mask0" mask-type="alpha" maskUnits="userSpaceOnUse" x="5" y="2" width="22" height="28">
<path fill-rule="evenodd" clip-rule="evenodd" d="M16 21.5554L22.8693 14.3998V14.3998C23.4938 13.7486 23.4932 12.6933 22.8679 12.0428C22.5683 11.7311 22.1622 11.5558 21.7387 11.5554H18.1334V4.88873V4.88873C18.1334 3.66143 17.1782 2.6665 16 2.6665C14.8218 2.6665 13.8667 3.66143 13.8667 4.88873V11.5554H10.2613V11.5554C9.37769 11.5562 8.66198 12.3031 8.66276 13.2235C8.66313 13.6647 8.8314 14.0877 9.13068 14.3998L16 21.5554ZM24.5333 24.8887H7.46668V24.8887C6.28847 24.8887 5.33334 25.8836 5.33334 27.1109C5.33334 28.3382 6.28847 29.3332 7.46668 29.3332H24.5333V29.3332C25.7115 29.3332 26.6667 28.3382 26.6667 27.1109C26.6667 25.8836 25.7115 24.8887 24.5333 24.8887H24.5333Z" fill="white"/>
</mask>
<g mask="url(#mask0)">
</g>
</svg>
