<svg width="16" height="16" viewBox="0 0 16 16" fill="none" xmlns="http://www.w3.org/2000/svg">
<path fill-rule="evenodd" clip-rule="evenodd" d="M9.21421 14.6667V8.66668H11.0358L11.3334 6.00001H9.21421V4.70134C9.21421 4.01468 9.23175 3.33334 10.1913 3.33334H11.1631V1.42668C11.1631 1.39801 10.3284 1.33334 9.48381 1.33334C7.72003 1.33334 6.61563 2.43801 6.61563 4.46668V6.00001H4.66669V8.66668H6.61563V14.6667H9.21421H9.21421Z" fill="#1D49BA"/>
<mask id="mask0" mask-type="alpha" maskUnits="userSpaceOnUse" x="4" y="1" width="8" height="14">
<path fill-rule="evenodd" clip-rule="evenodd" d="M9.21421 14.6667V8.66668H11.0358L11.3334 6.00001H9.21421V4.70134C9.21421 4.01468 9.23175 3.33334 10.1913 3.33334H11.1631V1.42668C11.1631 1.39801 10.3284 1.33334 9.48381 1.33334C7.72003 1.33334 6.61563 2.43801 6.61563 4.46668V6.00001H4.66669V8.66668H6.61563V14.6667H9.21421H9.21421Z" fill="white"/>
</mask>
<g mask="url(#mask0)">
</g>
</svg>
