<svg width="300" height="63" viewBox="0 0 300 63" fill="none" xmlns="http://www.w3.org/2000/svg">
<path fill-rule="evenodd" clip-rule="evenodd" d="M113 2H119.012V30.5605H137V36H113V2Z" fill="white"/>
<path fill-rule="evenodd" clip-rule="evenodd" d="M143.231 36H148.816V10.4747H143.231V36ZM143 6.55975H149V1H143V6.55975Z" fill="white"/>
<path fill-rule="evenodd" clip-rule="evenodd" d="M156.741 10.3072H162.696V14.2679C164.369 11.9418 166.632 9.76318 170.617 9.76318C174.358 9.76318 176.966 11.5956 178.344 14.3671C180.46 11.5956 183.215 9.76318 187.151 9.76318C192.811 9.76318 196.255 13.3771 196.255 19.7631V36.4464H190.3V21.595C190.3 17.4365 188.382 15.209 185.037 15.209C181.787 15.209 179.475 17.4858 179.475 21.6936V36.4464H173.521V21.5456C173.521 17.4858 171.553 15.209 168.255 15.209C164.96 15.209 162.696 17.6841 162.696 21.7439V36.4464H156.741V10.3072Z" fill="white"/>
<path fill-rule="evenodd" clip-rule="evenodd" d="M224.3 23.3277C224.3 18.278 220.905 14.9609 216.868 14.9609C212.834 14.9609 209.29 18.3273 209.29 23.4264C209.29 28.4761 212.834 31.7927 216.868 31.7927C220.953 31.7927 224.3 28.5748 224.3 23.3277ZM203.484 10.3067H209.438V14.6635C211.358 11.9413 214.064 9.76318 218.248 9.76318C224.398 9.76318 230.353 14.6635 230.353 23.4264C230.353 32.0896 224.446 36.9914 218.248 36.9914C213.965 36.9914 211.26 34.8128 209.438 32.3865V44.3673H203.484V10.3067Z" fill="white"/>
<mask id="mask0" mask-type="alpha" maskUnits="userSpaceOnUse" x="0" y="0" width="300" height="63">
<path fill-rule="evenodd" clip-rule="evenodd" d="M0 63H299.96V0.165039H0V63Z" fill="white"/>
</mask>
<g mask="url(#mask0)">
<path fill-rule="evenodd" clip-rule="evenodd" d="M236.796 36.4461H242.75V10.307H236.796V36.4461ZM236.549 6.29793H242.948V0.604492H236.549V6.29793Z" fill="white"/>
<path fill-rule="evenodd" clip-rule="evenodd" d="M270.207 23.328C270.207 18.2782 266.662 14.9612 262.677 14.9612C258.594 14.9612 255.199 18.1293 255.199 23.4267C255.199 28.4764 258.643 31.793 262.677 31.793C266.662 31.793 270.207 28.4271 270.207 23.328ZM249.195 23.328C249.195 14.6638 255.05 9.76348 261.251 9.76348C265.531 9.76348 268.238 11.9416 270.109 14.3669V0.307617H276.062V36.4467H270.109V32.0899C268.188 34.8131 265.482 36.9917 261.251 36.9917C255.148 36.9917 249.195 32.0899 249.195 23.328Z" fill="white"/>
<path fill-rule="evenodd" clip-rule="evenodd" d="M285.117 2.65506H282.287V1.19238H289.53V2.65506H286.699V10.1731H285.117V2.65506Z" fill="white"/>
<path fill-rule="evenodd" clip-rule="evenodd" d="M291.187 1.19287H292.857L295.573 5.43927L298.289 1.19287H299.959V10.1731H298.391V3.73338L295.573 7.96708H295.523L292.729 3.75878V10.1731H291.187V1.19287Z" fill="white"/>
<path fill-rule="evenodd" clip-rule="evenodd" d="M230.454 58.9866H233.731L232.092 54.493L230.454 58.9866ZM227.351 62.6332C227.292 62.5751 227.264 62.5023 227.264 62.4149L227.292 62.2831L230.773 52.8741C230.869 52.6309 231.043 52.5093 231.295 52.5093H232.89C233.141 52.5093 233.315 52.6309 233.412 52.8741L236.892 62.2831L236.921 62.4149C236.921 62.5023 236.89 62.5751 236.827 62.6332C236.764 62.6918 236.694 62.7211 236.616 62.7211H235.326C235.123 62.7211 234.983 62.6288 234.906 62.4442L234.238 60.6788H229.946L229.279 62.4442C229.202 62.6288 229.062 62.7211 228.859 62.7211H227.568C227.481 62.7211 227.409 62.6918 227.351 62.6332Z" fill="white"/>
<path fill-rule="evenodd" clip-rule="evenodd" d="M242.314 57.2064C242.895 57.2064 243.33 57.0775 243.62 56.8196C243.91 56.5623 244.055 56.1853 244.055 55.6896C244.055 55.1934 243.91 54.812 243.62 54.5443C243.33 54.2767 242.895 54.1429 242.314 54.1429H240.299V57.2064H242.314ZM238.356 62.6191C238.288 62.5507 238.255 62.4682 238.255 62.371V52.8736C238.255 52.7671 238.286 52.6792 238.349 52.6113C238.411 52.5435 238.496 52.5093 238.603 52.5093H242.358C243.547 52.5093 244.478 52.7862 245.15 53.3405C245.822 53.8948 246.157 54.683 246.157 55.7037C246.157 56.4138 245.988 57.0096 245.65 57.4912C245.311 57.9722 244.838 58.3204 244.228 58.5338L246.331 62.2538C246.361 62.3124 246.375 62.3661 246.375 62.4149C246.375 62.5019 246.344 62.5751 246.281 62.6332C246.217 62.6918 246.147 62.7211 246.07 62.7211H244.736C244.582 62.7211 244.461 62.684 244.374 62.6113C244.286 62.538 244.209 62.4437 244.142 62.327L242.286 58.8693H240.299V62.371C240.299 62.4682 240.265 62.5507 240.198 62.6191C240.13 62.687 240.043 62.7211 239.937 62.7211H238.603C238.506 62.7211 238.424 62.687 238.356 62.6191Z" fill="white"/>
<path fill-rule="evenodd" clip-rule="evenodd" d="M248.129 62.6191C248.061 62.5507 248.028 62.4682 248.028 62.371V52.8741C248.028 52.7671 248.059 52.6797 248.122 52.6113C248.185 52.5435 248.27 52.5093 248.376 52.5093H249.551C249.734 52.5093 249.879 52.6021 249.986 52.7867L252.784 58.0093L255.583 52.7867C255.688 52.6021 255.834 52.5093 256.018 52.5093H257.178C257.284 52.5093 257.371 52.5435 257.438 52.6113C257.506 52.6797 257.54 52.7671 257.54 52.8741V62.371C257.54 62.4779 257.506 62.5634 257.438 62.6264C257.371 62.6899 257.284 62.7211 257.178 62.7211H255.931C255.834 62.7211 255.752 62.6874 255.684 62.6191C255.617 62.5507 255.583 62.4682 255.583 62.371V56.0978L253.567 59.9491C253.461 60.1635 253.301 60.27 253.088 60.27H252.48C252.277 60.27 252.112 60.1635 251.987 59.9491L249.971 56.0978V62.371C249.971 62.4682 249.939 62.5507 249.877 62.6191C249.814 62.6874 249.729 62.7211 249.623 62.7211H248.376C248.28 62.7211 248.197 62.6874 248.129 62.6191Z" fill="white"/>
<path fill-rule="evenodd" clip-rule="evenodd" d="M265.254 60.5909C265.631 60.2021 265.834 59.6039 265.863 58.7966C265.883 58.213 265.892 57.8194 265.892 57.6147C265.892 57.3911 265.883 56.9974 265.863 56.4334C265.834 55.6359 265.627 55.04 265.241 54.6464C264.854 54.2523 264.346 54.0555 263.717 54.0555C263.08 54.0555 262.567 54.2523 262.18 54.6464C261.793 55.04 261.591 55.6359 261.572 56.4334C261.562 56.7152 261.557 57.1093 261.557 57.6147C261.557 58.1109 261.562 58.505 261.572 58.7966C261.591 59.5941 261.791 60.1899 262.173 60.5836C262.555 60.9777 263.07 61.1745 263.717 61.1745C264.365 61.1745 264.877 60.9801 265.254 60.5909ZM260.629 61.8602C259.894 61.1891 259.508 60.1924 259.469 58.8694C259.459 58.5876 259.454 58.1744 259.454 57.6294C259.454 57.0751 259.459 56.657 259.469 56.3748C259.508 55.0816 259.904 54.0897 260.658 53.3986C261.412 52.7086 262.432 52.3633 263.717 52.3633C264.993 52.3633 266.011 52.7086 266.77 53.3986C267.529 54.0897 267.927 55.0816 267.966 56.3748C267.986 56.9388 267.995 57.3574 267.995 57.6294C267.995 57.8921 267.986 58.3053 267.966 58.8694C267.927 60.1924 267.539 61.1891 266.799 61.8602C266.059 62.5312 265.032 62.8667 263.717 62.8667C262.393 62.8667 261.363 62.5312 260.629 61.8602Z" fill="white"/>
<path fill-rule="evenodd" clip-rule="evenodd" d="M273.94 57.2064C274.52 57.2064 274.955 57.0775 275.245 56.8196C275.535 56.5623 275.68 56.1853 275.68 55.6896C275.68 55.1934 275.535 54.812 275.245 54.5443C274.955 54.2767 274.52 54.1429 273.94 54.1429H271.925V57.2064H273.94ZM269.982 62.6191C269.914 62.5507 269.88 62.4682 269.88 62.371V52.8736C269.88 52.7671 269.911 52.6792 269.974 52.6113C270.037 52.5435 270.121 52.5093 270.228 52.5093H273.984C275.173 52.5093 276.102 52.7862 276.775 53.3405C277.447 53.8948 277.783 54.683 277.783 55.7037C277.783 56.4138 277.613 57.0096 277.275 57.4912C276.936 57.9722 276.463 58.3204 275.854 58.5338L277.956 62.2538C277.985 62.3124 278 62.3661 278 62.4149C278 62.5019 277.969 62.5751 277.906 62.6332C277.843 62.6918 277.773 62.7211 277.696 62.7211H276.361C276.207 62.7211 276.086 62.684 275.999 62.6113C275.912 62.538 275.835 62.4437 275.767 62.327L273.911 58.8693H271.925V62.371C271.925 62.4682 271.89 62.5507 271.823 62.6191C271.755 62.687 271.668 62.7211 271.562 62.7211H270.228C270.131 62.7211 270.049 62.687 269.982 62.6191Z" fill="white"/>
<path fill-rule="evenodd" clip-rule="evenodd" d="M18.5654 63H9.37415V60.5581H18.5654C20.0547 60.5581 21.4615 59.9032 22.4237 58.7609C23.3974 57.6059 23.8135 56.0812 23.5659 54.5795C22.8644 50.3292 24.1076 46.0593 26.9761 42.8659L27.0222 42.8146C29.5329 40.0196 32.9746 38.3758 36.714 38.1853C40.4572 37.9929 44.0421 39.2812 46.8203 41.8066L51.4232 45.991L49.7955 47.8028L45.1931 43.6185C42.896 41.5302 39.9285 40.4675 36.8368 40.6243C33.745 40.7815 30.8989 42.1407 28.8237 44.4516L28.7775 44.5029C26.4076 47.1411 25.3809 50.6681 25.9601 54.1795C26.3251 56.3909 25.7106 58.6364 24.2751 60.3398C22.8508 62.0306 20.7698 63 18.5654 63Z" fill="white"/>
<path fill-rule="evenodd" clip-rule="evenodd" d="M38.3032 22.1478C38.1284 22.1478 37.9527 22.1639 37.7774 22.1957C36.1988 22.4838 35.1473 24.0105 35.4338 25.5987C35.5726 26.3683 36.0007 27.0369 36.6396 27.4823C37.2784 27.9277 38.0512 28.0962 38.8163 27.9565C39.5813 27.8168 40.2459 27.3861 40.6891 26.7434C41.1313 26.1007 41.2988 25.3227 41.16 24.5535C41.0216 23.7843 40.593 23.1153 39.9541 22.6699C39.4619 22.3266 38.8896 22.1478 38.3032 22.1478ZM38.2944 30.4462C35.7648 30.4462 33.5129 28.6251 33.0454 26.0348C32.5202 23.1216 34.4488 20.3213 37.3439 19.7929C38.7469 19.5365 40.1643 19.8461 41.3367 20.6627C42.5085 21.4792 43.2939 22.7065 43.5483 24.1179C43.8027 25.5288 43.4959 26.9553 42.6838 28.1343C41.8721 29.3127 40.6522 30.1034 39.2498 30.3593C38.9289 30.4179 38.6095 30.4462 38.2944 30.4462Z" fill="white"/>
<path fill-rule="evenodd" clip-rule="evenodd" d="M56.3603 48.3606C56.1884 48.3606 56.0146 48.3763 55.8394 48.408C55.0748 48.5477 54.4098 48.9784 53.9671 49.6211C53.5244 50.2638 53.3569 51.0418 53.4962 51.811C53.6345 52.5806 54.0632 53.2492 54.7015 53.6946C55.3404 54.14 56.1132 54.309 56.8782 54.1688C57.6433 54.0292 58.3083 53.5984 58.7511 52.9557C59.1933 52.313 59.3612 51.535 59.2224 50.7659C58.9676 49.3535 57.7394 48.3606 56.3603 48.3606ZM56.3477 56.6595C55.2719 56.6595 54.2229 56.3313 53.3195 55.7018C52.1477 54.8848 51.3622 53.658 51.1078 52.2471C50.853 50.8357 51.1603 49.4092 51.9719 48.2302C52.7841 47.0518 54.0035 46.2616 55.4064 46.0052C58.302 45.4787 61.085 47.4166 61.6103 50.3297C61.8646 51.7411 61.5578 53.1677 60.7462 54.3466C59.9341 55.525 58.7146 56.3157 57.3117 56.5716C56.9899 56.6302 56.6676 56.6595 56.3477 56.6595Z" fill="white"/>
<path fill-rule="evenodd" clip-rule="evenodd" d="M72.7329 50.3414L41.0921 28.286L42.4747 26.2788L74.1154 48.3342L72.7329 50.3414Z" fill="white"/>
<path fill-rule="evenodd" clip-rule="evenodd" d="M62.6241 33.0117L37.0619 14.5122H11.1207V12.0703H37.844L64.0415 31.0294L62.6241 33.0117Z" fill="white"/>
<path fill-rule="evenodd" clip-rule="evenodd" d="M7.55687 62.7821H1.87629C1.019 62.7821 0.292306 62.2224 0.0675484 61.3902C-0.156723 60.558 0.189393 59.7058 0.928713 59.2702L6.92774 55.7329L8.15493 57.8393L3.91366 60.3402H7.55687V62.7821Z" fill="white"/>
<path fill-rule="evenodd" clip-rule="evenodd" d="M79.6871 52.5117C77.1881 52.5117 74.7512 51.7503 72.6527 50.2881L74.0352 48.2804C76.226 49.8081 78.876 50.3853 81.4993 49.9043C84.1221 49.4237 86.4007 47.9445 87.9162 45.738C91.0376 41.1937 89.9056 34.9367 85.392 31.7906L73.8954 23.7769C72.5124 22.8123 71.5852 21.3643 71.2847 19.699C70.9847 18.0336 71.3468 16.3502 72.3051 14.9583C74.2828 12.0862 78.2143 11.3683 81.0706 13.3584L87.125 17.5789L87.7507 16.8322L83.8056 9.2478C81.6395 7.40761 78.8973 6.51877 76.0648 6.74294C73.1565 6.97247 70.5284 8.34235 68.6638 10.5996C66.726 12.9467 65.8828 15.9048 66.2895 18.9288C66.6963 21.9528 68.2905 24.5788 70.7794 26.3232L71.9138 27.1188C73.0531 27.9178 73.8221 29.169 74.0235 30.5516C74.225 31.9337 73.8444 33.3543 72.9808 34.4483C71.3585 36.5019 68.3905 36.9697 66.2221 35.5124L67.5701 33.4818C68.6954 34.2383 70.2381 33.9951 71.0803 32.929C71.5357 32.3527 71.7279 31.6338 71.6221 30.9051C71.5158 30.1765 71.1269 29.5431 70.526 29.1221L69.392 28.327C66.3832 26.2182 64.376 22.912 63.8842 19.2565C63.3925 15.601 64.4541 11.8767 66.7973 9.03926C69.0837 6.27019 72.3075 4.59019 75.875 4.30889C79.4444 4.02661 82.8876 5.18112 85.5745 7.55803L85.7444 7.70796L90.657 17.1521L87.558 20.8515L79.6881 15.3656C77.9337 14.1432 75.5162 14.5837 74.3002 16.3492C73.7109 17.2048 73.4886 18.2392 73.673 19.2628C73.8575 20.287 74.4274 21.1768 75.2779 21.7697L86.7745 29.7834C92.3866 33.6952 93.7944 41.4755 89.9129 47.1264C88.0284 49.8696 85.1949 51.7093 81.9342 52.3066C81.1847 52.4438 80.4328 52.5117 79.6871 52.5117Z" fill="white"/>
<path fill-rule="evenodd" clip-rule="evenodd" d="M84.6728 62.7822H71.2519C70.1044 62.7822 69.0005 62.433 68.0592 61.7728L61.0602 56.8925L62.4427 54.8857L69.4451 59.768C69.9796 60.1431 70.6034 60.3404 71.2519 60.3404H84.6728V62.7822Z" fill="white"/>
<path fill-rule="evenodd" clip-rule="evenodd" d="M84.1909 9.98816L79.687 1.29318L81.8395 0.165039L86.3434 8.85953L84.1909 9.98816Z" fill="white"/>
<path fill-rule="evenodd" clip-rule="evenodd" d="M52.4828 62.7822H43.9163C40.9182 62.7822 38.2789 61.0797 37.0274 58.3395C35.776 55.5992 36.2119 52.4756 38.1648 50.1876L38.4571 49.8447L40.2988 51.4349L40.0061 51.7777C38.6784 53.3337 38.3823 55.4571 39.2333 57.3197C40.0838 59.1829 41.8779 60.3403 43.9163 60.3403H52.4828V62.7822Z" fill="white"/>
<path fill-rule="evenodd" clip-rule="evenodd" d="M23.7913 26.2968H33.3782V23.855H23.7913V26.2968Z" fill="white"/>
</g>
</svg>
