<svg width="16" height="16" viewBox="0 0 16 16" fill="none" xmlns="http://www.w3.org/2000/svg">
<path fill-rule="evenodd" clip-rule="evenodd" d="M14.6666 14.6667H12V10.0007C12 8.72068 11.4353 8.00668 10.4226 8.00668C9.32065 8.00668 8.66665 8.75068 8.66665 10.0007V14.6667H5.99998V6.00001H8.66665V6.97468C8.66665 6.97468 9.50331 5.50668 11.3886 5.50668C13.2746 5.50668 14.6666 6.65734 14.6666 9.03868V14.6667ZM2.96131 4.61401C2.06198 4.61401 1.33331 3.87934 1.33331 2.97334C1.33331 2.06801 2.06198 1.33334 2.96131 1.33334C3.85998 1.33334 4.58865 2.06801 4.58865 2.97334C4.58931 3.87934 3.85998 4.61401 2.96131 4.61401ZM1.33331 14.6667H4.66665V6.00001H1.33331V14.6667Z" fill="#1D49BA"/>
<mask id="mask0" mask-type="alpha" maskUnits="userSpaceOnUse" x="1" y="1" width="14" height="14">
<path fill-rule="evenodd" clip-rule="evenodd" d="M14.6666 14.6667H12V10.0007C12 8.72068 11.4353 8.00668 10.4226 8.00668C9.32065 8.00668 8.66665 8.75068 8.66665 10.0007V14.6667H5.99998V6.00001H8.66665V6.97468C8.66665 6.97468 9.50331 5.50668 11.3886 5.50668C13.2746 5.50668 14.6666 6.65734 14.6666 9.03868V14.6667ZM2.96131 4.61401C2.06198 4.61401 1.33331 3.87934 1.33331 2.97334C1.33331 2.06801 2.06198 1.33334 2.96131 1.33334C3.85998 1.33334 4.58865 2.06801 4.58865 2.97334C4.58931 3.87934 3.85998 4.61401 2.96131 4.61401ZM1.33331 14.6667H4.66665V6.00001H1.33331V14.6667Z" fill="white"/>
</mask>
<g mask="url(#mask0)">
</g>
</svg>
