<svg width="24" height="24" viewBox="0 0 24 24" fill="none" xmlns="http://www.w3.org/2000/svg">
<path fill-rule="evenodd" clip-rule="evenodd" d="M21.9956 7.00333V7.00332C22.1084 4.35535 20.0533 2.11727 17.4053 2.00443C17.2691 1.99863 17.1328 1.99863 16.9967 2.00443V2.00443C14.3487 1.8916 12.1106 3.94674 11.9978 6.59472C11.992 6.73086 11.992 6.86719 11.9978 7.00333C11.9978 9.50278 16.9967 15.3348 16.9967 15.3348C16.9967 15.3348 21.9956 9.50278 21.9956 7.00333L21.9956 7.00333ZM15.3304 7.00333V7.00333C15.3304 6.08306 16.0764 5.33703 16.9967 5.33703C17.9169 5.33703 18.663 6.08306 18.663 7.00333C18.663 7.9236 17.9169 8.66962 16.9967 8.66962H16.9967C16.0764 8.66962 15.3304 7.9236 15.3304 7.00333C15.3304 7.00333 15.3304 7.00333 15.3304 7.00333ZM16.9967 17.8926L15.7303 16.4179C14.4972 14.9432 10.3315 9.89435 10.3315 7.00333V7.00332C10.3332 6.41628 10.4059 5.8316 10.5481 5.26204L7.83204 6.17017L2 3.67073V19.5006L7.83204 22L15.3304 19.5006L21.9956 22V11.3524C20.8814 13.1329 19.6337 14.8263 18.2631 16.4179L16.9967 17.8926Z" fill="#1D49BA"/>
<mask id="mask0" mask-type="alpha" maskUnits="userSpaceOnUse" x="2" y="2" width="20" height="20">
<path fill-rule="evenodd" clip-rule="evenodd" d="M21.9956 7.00333V7.00332C22.1084 4.35535 20.0533 2.11727 17.4053 2.00443C17.2691 1.99863 17.1328 1.99863 16.9967 2.00443V2.00443C14.3487 1.8916 12.1106 3.94674 11.9978 6.59472C11.992 6.73086 11.992 6.86719 11.9978 7.00333C11.9978 9.50278 16.9967 15.3348 16.9967 15.3348C16.9967 15.3348 21.9956 9.50278 21.9956 7.00333L21.9956 7.00333ZM15.3304 7.00333V7.00333C15.3304 6.08306 16.0764 5.33703 16.9967 5.33703C17.9169 5.33703 18.663 6.08306 18.663 7.00333C18.663 7.9236 17.9169 8.66962 16.9967 8.66962H16.9967C16.0764 8.66962 15.3304 7.9236 15.3304 7.00333C15.3304 7.00333 15.3304 7.00333 15.3304 7.00333ZM16.9967 17.8926L15.7303 16.4179C14.4972 14.9432 10.3315 9.89435 10.3315 7.00333V7.00332C10.3332 6.41628 10.4059 5.8316 10.5481 5.26204L7.83204 6.17017L2 3.67073V19.5006L7.83204 22L15.3304 19.5006L21.9956 22V11.3524C20.8814 13.1329 19.6337 14.8263 18.2631 16.4179L16.9967 17.8926Z" fill="white"/>
</mask>
<g mask="url(#mask0)">
</g>
</svg>
