<svg width="128" height="128" viewBox="0 0 128 128" fill="none" xmlns="http://www.w3.org/2000/svg">
<path fill-rule="evenodd" clip-rule="evenodd" d="M102.013 55.467L39.9471 12.8006V12.8006C34.8071 9.26602 27.5151 10.2211 23.6601 14.9339C22.1498 16.7803 21.3333 19.026 21.3333 21.3339V106.667H21.3333C21.3333 112.558 26.5419 117.333 32.967 117.333C35.4841 117.333 37.9334 116.585 39.9471 115.2L102.013 72.5336C107.153 68.999 108.194 62.3132 104.339 57.6004C103.678 56.7918 102.894 56.0735 102.013 55.467Z" fill="#1D49BA"/>
<mask id="mask0" mask-type="alpha" maskUnits="userSpaceOnUse" x="21" y="10" width="86" height="108">
<path fill-rule="evenodd" clip-rule="evenodd" d="M102.013 55.467L39.9471 12.8006V12.8006C34.8071 9.26602 27.5151 10.2211 23.6601 14.9339C22.1498 16.7803 21.3333 19.026 21.3333 21.3339V106.667H21.3333C21.3333 112.558 26.5419 117.333 32.967 117.333C35.4841 117.333 37.9334 116.585 39.9471 115.2L102.013 72.5336C107.153 68.999 108.194 62.3132 104.339 57.6004C103.678 56.7918 102.894 56.0735 102.013 55.467Z" fill="white"/>
</mask>
<g mask="url(#mask0)">
</g>
</svg>
