<svg width="24" height="24" viewBox="0 0 24 24" fill="none" xmlns="http://www.w3.org/2000/svg">
<path fill-rule="evenodd" clip-rule="evenodd" d="M12.125 10C10.9514 10 10 10.8954 10 12C10 13.1046 10.9514 14 12.125 14C13.2986 14 14.25 13.1046 14.25 12C14.25 10.8954 13.2986 10 12.125 10V10ZM5.125 10C3.9514 10 3 10.8954 3 12C3 13.1046 3.9514 14 5.125 14C6.2986 14 7.25 13.1046 7.25 12C7.25 10.8954 6.2986 10 5.125 10V10ZM18.875 10C17.7014 10 16.75 10.8954 16.75 12C16.75 13.1046 17.7014 14 18.875 14C20.0486 14 21 13.1046 21 12C21 10.8954 20.0486 10 18.875 10V10Z" fill="#1D49BA"/>
<mask id="mask0" mask-type="alpha" maskUnits="userSpaceOnUse" x="3" y="10" width="18" height="4">
<path fill-rule="evenodd" clip-rule="evenodd" d="M12.125 10C10.9514 10 10 10.8954 10 12C10 13.1046 10.9514 14 12.125 14C13.2986 14 14.25 13.1046 14.25 12C14.25 10.8954 13.2986 10 12.125 10V10ZM5.125 10C3.9514 10 3 10.8954 3 12C3 13.1046 3.9514 14 5.125 14C6.2986 14 7.25 13.1046 7.25 12C7.25 10.8954 6.2986 10 5.125 10V10ZM18.875 10C17.7014 10 16.75 10.8954 16.75 12C16.75 13.1046 17.7014 14 18.875 14C20.0486 14 21 13.1046 21 12C21 10.8954 20.0486 10 18.875 10V10Z" fill="white"/>
</mask>
<g mask="url(#mask0)">
</g>
</svg>
