<svg width="16" height="16" viewBox="0 0 16 16" fill="none" xmlns="http://www.w3.org/2000/svg">
<path fill-rule="evenodd" clip-rule="evenodd" d="M5.52665 13.3347C10.558 13.3347 13.31 9.23044 13.31 5.67167C13.31 5.55484 13.31 5.43866 13.302 5.32314C13.8373 4.94245 14.2993 4.46987 14.6666 3.92903C14.168 4.14694 13.638 4.29003 13.096 4.35304C13.6666 4.01632 14.094 3.4873 14.2986 2.8631C13.7613 3.17684 13.174 3.39803 12.5613 3.51684C11.5253 2.43252 9.79265 2.38002 8.69065 3.4C7.98065 4.05768 7.67865 5.03828 7.89931 5.9736C5.69998 5.86464 3.65065 4.84203 2.26131 3.15978C1.53531 4.39045 1.90665 5.96441 3.10865 6.75467C2.67331 6.7422 2.24731 6.62668 1.86665 6.41796V6.45208C1.86731 7.73396 2.78531 8.83796 4.06131 9.09197C3.65865 9.20027 3.23598 9.21602 2.82665 9.13792C3.18465 10.2354 4.21198 10.9869 5.38198 11.0085C4.41331 11.7581 3.21665 12.1651 1.98465 12.1637C1.76731 12.1631 1.54998 12.1506 1.33331 12.125C2.58465 12.9153 4.03998 13.3347 5.52665 13.3327" fill="#1D49BA"/>
<mask id="mask0" mask-type="alpha" maskUnits="userSpaceOnUse" x="1" y="2" width="14" height="12">
<path fill-rule="evenodd" clip-rule="evenodd" d="M5.52665 13.3347C10.558 13.3347 13.31 9.23044 13.31 5.67167C13.31 5.55484 13.31 5.43866 13.302 5.32314C13.8373 4.94245 14.2993 4.46987 14.6666 3.92903C14.168 4.14694 13.638 4.29003 13.096 4.35304C13.6666 4.01632 14.094 3.4873 14.2986 2.8631C13.7613 3.17684 13.174 3.39803 12.5613 3.51684C11.5253 2.43252 9.79265 2.38002 8.69065 3.4C7.98065 4.05768 7.67865 5.03828 7.89931 5.9736C5.69998 5.86464 3.65065 4.84203 2.26131 3.15978C1.53531 4.39045 1.90665 5.96441 3.10865 6.75467C2.67331 6.7422 2.24731 6.62668 1.86665 6.41796V6.45208C1.86731 7.73396 2.78531 8.83796 4.06131 9.09197C3.65865 9.20027 3.23598 9.21602 2.82665 9.13792C3.18465 10.2354 4.21198 10.9869 5.38198 11.0085C4.41331 11.7581 3.21665 12.1651 1.98465 12.1637C1.76731 12.1631 1.54998 12.1506 1.33331 12.125C2.58465 12.9153 4.03998 13.3347 5.52665 13.3327" fill="white"/>
</mask>
<g mask="url(#mask0)">
</g>
</svg>
