<svg width="16" height="16" viewBox="0 0 16 16" fill="none" xmlns="http://www.w3.org/2000/svg">
<path fill-rule="evenodd" clip-rule="evenodd" d="M6.65889 9.72393V5.98284C7.98703 6.6078 9.01568 7.21148 10.2322 7.86236C9.22884 8.41884 7.98703 9.04313 6.65889 9.72393M14.0606 4.12194C13.8315 3.8201 13.4411 3.5854 13.0253 3.50762C11.8035 3.27558 4.18061 3.27492 2.95941 3.50762C2.62605 3.57011 2.32921 3.72103 2.0742 3.95572C0.999742 4.95299 1.33642 10.301 1.59541 11.1673C1.70431 11.5423 1.8451 11.8129 2.0224 11.9904C2.25084 12.2251 2.56362 12.3866 2.92288 12.4591C3.92895 12.6672 9.112 12.7836 13.0041 12.4904C13.3627 12.4279 13.6801 12.261 13.9305 12.0163C14.9239 11.023 14.8562 5.37451 14.0606 4.12193" fill="#1D49BA"/>
<mask id="mask0" mask-type="alpha" maskUnits="userSpaceOnUse" x="1" y="3" width="14" height="10">
<path fill-rule="evenodd" clip-rule="evenodd" d="M6.65889 9.72393V5.98284C7.98703 6.6078 9.01568 7.21148 10.2322 7.86236C9.22884 8.41884 7.98703 9.04313 6.65889 9.72393M14.0606 4.12194C13.8315 3.8201 13.4411 3.5854 13.0253 3.50762C11.8035 3.27558 4.18061 3.27492 2.95941 3.50762C2.62605 3.57011 2.32921 3.72103 2.0742 3.95572C0.999742 4.95299 1.33642 10.301 1.59541 11.1673C1.70431 11.5423 1.8451 11.8129 2.0224 11.9904C2.25084 12.2251 2.56362 12.3866 2.92288 12.4591C3.92895 12.6672 9.112 12.7836 13.0041 12.4904C13.3627 12.4279 13.6801 12.261 13.9305 12.0163C14.9239 11.023 14.8562 5.37451 14.0606 4.12193" fill="white"/>
</mask>
<g mask="url(#mask0)">
</g>
</svg>
